<svg fill="none" height="53" viewBox="0 0 53 53" width="53" xmlns="http://www.w3.org/2000/svg" xmlns:xlink="http://www.w3.org/1999/xlink"><linearGradient id="a" gradientUnits="userSpaceOnUse" x1="20.1459" x2="29.2926" y1="19.2105" y2="33.8505"><stop offset="0" stop-color="#29f3b2"/><stop offset="1" stop-color="#00d293"/></linearGradient><path d="m0 0h53v53h-53z" fill="#cff5e9"/><path d="m27.8595 32.872h6.916v-7.28h-3.172c.1733-1.04.624-1.9413 1.352-2.704s1.6813-1.2827 2.86-1.56v-3.328c-2.6347.5547-4.628 1.7333-5.98 3.536-1.3174 1.8027-1.976 4.0907-1.976 6.864zm-10.504 0h6.864v-7.28h-3.172c.1733-1.04.624-1.9413 1.352-2.704s1.6813-1.2827 2.86-1.56v-3.328c-2.6.5547-4.576 1.7333-5.928 3.536-1.3174 1.8027-1.976 4.0907-1.976 6.864z" fill="url(#a)"/></svg>