<svg fill="none" height="20" viewBox="0 0 20 20" width="20" xmlns="http://www.w3.org/2000/svg"><path d="m10.0001 17.4166 4.125-4.125v-.0083c2.275-2.2834 2.275-5.97503-.0084-8.25003-2.2833-2.28334-5.97497-2.28334-8.24997 0-2.28333 2.275-2.28333 5.96663 0 8.24163l4.11667 4.1167zm0 2.35-5.30837-5.3083-.00833-.0084c-2.93333-2.9333-2.93333-7.6833 0-10.6083 2.925-2.933332 7.675-2.933332 10.6 0 2.925 2.925 2.925 7.675-.0083 10.6l-5.30837 5.3zm0-8.9417-.00837-.0008c.91667 0 1.66667-.75 1.66667-1.66667 0-.925-.75-1.66666-1.66667-1.675h-.00833c-.925 0-1.66667.74167-1.66667 1.66667 0 .9167.74167 1.6667 1.66667 1.6583zm0 1.6667-.00837-.0008c-1.84167-.0084-3.33333-1.5-3.33333-3.3417 0-1.84167 1.49166-3.33333 3.33333-3.33333h-.00833c1.8333-.00834 3.3333 1.49166 3.3333 3.325 0 1.83333-1.5 3.33333-3.3333 3.33333z" fill="#0f0d0d"/></svg>