<svg fill="none" height="20" viewBox="0 0 20 20" width="20" xmlns="http://www.w3.org/2000/svg"><path d="m18.3335 14.1679h-.0083c-.0084 2.3417-1.6417 4.375-3.9334 4.875l-.5333-1.6v-.0083c.9833-.1667 1.8417-.7583 2.3417-1.625h-2.0584l-.0083-.0008c-.925-.0084-1.6667-.75-1.6667-1.675v-3.3334c-.0083-.92496.7417-1.67496 1.6584-1.67496h2.4416c-.4666-3.65833-3.8-6.24166-7.4583-5.78333-3.025.375-5.4 2.75833-5.78334 5.775h2.44167-.00833c.91666-.00833 1.66666.74167 1.66666 1.65829v3.3334c0 .9166-.75 1.6666-1.66666 1.6666h-2.5l-.00834-.0008c-.925-.0083-1.66666-.75-1.66666-1.675v-4.16666c-.00084-4.60833 3.725-8.33333 8.33333-8.33333 4.60247 0 8.33337 3.73083 8.33337 8.33333v4.16666zm-1.6667-.0083v-3.3333h-2.5v3.3333zm-13.3333-3.3333v3.3333h2.5v-3.3333z" fill="#0f0d0d"/></svg>