<svg fill="none" height="20" viewBox="0 0 20 20" width="20" xmlns="http://www.w3.org/2000/svg" xmlns:xlink="http://www.w3.org/1999/xlink"><clipPath id="a"><path d="m0 0h20v20h-20z"/></clipPath><g clip-path="url(#a)"><path d="m18.3334 16.6728v-.0084c-.0084.45-.375.8167-.8334.825h-15.01663c-.45834-.0083-.83334-.375-.83334-.8333v-.8417h14.99997v-9.7558l-6.66663 6-8.33334-7.5v-1.25c-.00833-.46667.36667-.84167.825-.84167h14.99997-.0083c.4583-.00833.8333.36667.8333.825v13.33917zm-14.6417-12.5142 6.3 5.675 6.3-5.675h-12.61667zm-3.70000078 8.3333h6.66667078v1.6667h-6.66667078zm0-4.16663h4.16667078v1.66666h-4.16667078z" fill="#0f0d0d"/></g></svg>