<svg fill="none" height="60" viewBox="0 0 60 60" width="60" xmlns="http://www.w3.org/2000/svg" xmlns:xlink="http://www.w3.org/1999/xlink"><linearGradient id="a" gradientUnits="userSpaceOnUse" x1="6.89655" x2="48.6984" y1="8.94" y2="55.117"><stop offset="0" stop-color="#f3c555"/><stop offset="1" stop-color="#ffa800"/></linearGradient><path d="m42.5652 19.0063-.0259-.0025c-8.6497-.0258-16.3929 5.3041-19.4229 13.3634l4.8428 1.8024h-.0259c3.0041-8.0078 11.9645-12.0503 20.0186-9.0377 6.034 2.2401 10.0481 8.0077 10.0481 14.4191 0 8.5227-6.9664 15.449-15.5384 15.449h-25.8972v-.0026c-8.59792 0-15.56428-6.9263-15.56428-15.449-.025897-6.5658 4.14356-12.4365 10.38478-14.5993l-.0259-.0258c-.5179-9.9646 7.1995-18.41007 17.1958-18.89928 8.5202-.43773 16.2117 5.14968 18.413 13.36338-1.5021-.3605-3.0559-.5149-4.5839-.5149z" fill="url(#a)"/></svg>