<svg fill="none" height="60" viewBox="0 0 60 60" width="60" xmlns="http://www.w3.org/2000/svg" xmlns:xlink="http://www.w3.org/1999/xlink"><linearGradient id="a" gradientUnits="userSpaceOnUse" x1="52.7294" x2="1.64633" y1="59" y2="-.679829"><stop offset="0" stop-color="#4190ff"/><stop offset="1" stop-color="#00c2ff"/></linearGradient><path d="m35.6 13.4342h5.6v5.7029h14-.028c1.54-.0285 2.8 1.2546 2.8 2.8229v21.3857l-16.8-9.98.084 22.9825 6.216-6.1306 4.9896 8.7824h-30.9176-.028c-1.568-.0285-2.8-1.2831-2.8-2.8799v-.0029-14.2571h-5.6v-5.7029h5.6v-14.2571c-.028-1.5968 1.232-2.8799 2.772-2.8799h14v-5.7029zm22.4 32.3067v10.4362l-.028-.0285c0 .2851-.056.5703-.14.8554l-5.488-9.6948 5.6-1.6539zm-50.4-9.5238v5.7029h-5.6v-5.7029zm0-11.4057v5.7029h-5.6v-5.7029zm0-11.4057v5.7029h-5.6v-5.7029zm0-11.4057v5.70285h-5.6v-5.70285zm11.2 0v5.70285h-5.6v-5.70285zm11.2 0v5.70285h-5.6v-5.70285zm11.2 0v5.70285h-5.6v-5.70285z" fill="url(#a)"/></svg>