<svg width="26" height="26" viewBox="0 0 26 26" fill="none" xmlns="http://www.w3.org/2000/svg">
<path d="M3.24971 3.25038H22.7497H22.7389C23.3347 3.23955 23.8222 3.72705 23.8222 4.32288V21.6562C23.8222 22.252 23.3347 22.7395 22.7389 22.7395H3.23888H3.22804C2.62138 22.7287 2.14471 22.252 2.14471 21.6454V21.6443V4.31096C2.13388 3.7043 2.62138 3.2168 3.21721 3.2168L3.24971 3.25038ZM4.33304 5.41705V20.5837H21.6664V5.41705H4.33304ZM12.9997 16.2504H19.4997V18.417H12.9997V16.2504ZM9.38896 13.0004L6.32312 9.93455L7.85604 8.40163L12.4494 12.995L7.85388 17.5883L6.32096 16.05L9.37596 12.9841L9.38896 13.0004Z" fill="url(#paint0_linear_514_6401)"/>
<defs>
<linearGradient id="paint0_linear_514_6401" x1="21.782" y1="22.7395" x2="4.73636" y2="0.23236" gradientUnits="userSpaceOnUse">
<stop stop-color="#4190FF"/>
<stop offset="1" stop-color="#00C2FF"/>
</linearGradient>
</defs>
</svg>
