<svg fill="none" height="60" viewBox="0 0 60 60" width="60" xmlns="http://www.w3.org/2000/svg" xmlns:xlink="http://www.w3.org/1999/xlink"><linearGradient id="a" gradientUnits="userSpaceOnUse" x1="11.1628" x2="46.9535" y1="7.39535" y2="53.5465"><stop offset="0" stop-color="#29f3b2"/><stop offset="1" stop-color="#00d293"/></linearGradient><path d="m17.3397 53.8427-14.28565 3.1573 3.15899-14.2778-.027-.027c-2.106-3.9129-3.18599-8.2845-3.18599-12.71-.027-14.9228 12.06895-26.9852 26.99995-26.9852 14.9121 0 27 12.0813 27 26.9852s-12.0879 26.9851-27 26.9851h-.027c-4.455 0-8.829-1.1064-12.717-3.1842zm-.81-23.8279c0 7.4479 6.021 13.4656 13.5 13.4656 7.452-.0269 13.473-6.0446 13.473-13.5195h-5.4c0 4.4525-3.645 8.0955-8.1 8.0955-4.482 0-8.1-3.643-8.1-8.0955h-5.4z" fill="url(#a)"/></svg>