<svg width="26" height="26" viewBox="0 0 26 26" fill="none" xmlns="http://www.w3.org/2000/svg">
<path d="M17.3337 14.0837L24.8737 18.482L21.6453 19.4028L23.9474 23.3895L22.0624 24.4728L19.7603 20.4862L17.3445 22.8153L17.3012 14.0728L17.3337 14.0837ZM15.167 6.50033H17.3337V8.66699H22.7503H22.7395C23.3353 8.65616 23.8228 9.14366 23.8228 9.73949V14.0728H21.6562V10.8228H10.8228V21.6562H15.1562V23.8228H9.73949H9.72866C9.12199 23.812 8.64533 23.3353 8.64533 22.7287V22.7276V17.3109H6.47866V15.1442H8.64533V9.72758C8.63449 9.12091 9.12199 8.63341 9.71783 8.63341H15.1345V6.46674L15.167 6.50033ZM4.33366 15.167V17.3337H2.16699V15.167H4.33366ZM4.33366 10.8337V13.0003H2.16699V10.8337H4.33366ZM4.33366 6.50033V8.66699H2.16699V6.50033H4.33366ZM4.33366 2.16699V4.33366H2.16699V2.16699H4.33366ZM8.66699 2.16699V4.33366H6.50033V2.16699H8.66699ZM13.0003 2.16699V4.33366H10.8337V2.16699H13.0003ZM17.3337 2.16699V4.33366H15.167V2.16699H17.3337Z" fill="url(#paint0_linear_514_6404)"/>
<defs>
<linearGradient id="paint0_linear_514_6404" x1="4.51596" y1="3.50534" x2="23.6284" y2="21.9811" gradientUnits="userSpaceOnUse">
<stop stop-color="#F3C555"/>
<stop offset="1" stop-color="#FFA800"/>
</linearGradient>
</defs>
</svg>
