<svg width="26" height="26" viewBox="0 0 26 26" fill="none" xmlns="http://www.w3.org/2000/svg">
<path d="M21.7567 16.4669L23.0567 17.2469C23.3058 17.3986 23.3925 17.7236 23.2408 17.9836C23.1867 18.0594 23.1217 18.1136 23.0458 18.1678L13.545 23.8661V23.8553C13.1983 24.0611 12.765 24.0611 12.4292 23.8553L2.92509 18.1461L2.91425 18.1353C2.65425 17.9728 2.56759 17.6478 2.71925 17.3878C2.76259 17.3011 2.82759 17.2469 2.90342 17.1928L4.20342 16.4019L12.9568 21.6561L21.7101 16.4019L21.7567 16.4669ZM21.7567 11.3753L23.0567 12.1553C23.3058 12.3069 23.3925 12.6319 23.2408 12.8919C23.1867 12.9678 23.1217 13.0219 23.0458 13.0761L12.9817 19.1103L2.92292 13.0653L2.91209 13.0544C2.65209 12.8919 2.56542 12.5669 2.71709 12.3069C2.76042 12.2203 2.82542 12.1661 2.90125 12.1119L4.20125 11.3211L12.9546 16.5753L21.7079 11.3211L21.7567 11.3753ZM13.5558 1.4086L23.0567 7.10693C23.3058 7.2586 23.3925 7.5836 23.2408 7.8436C23.1867 7.91943 23.1217 7.9736 23.0458 8.02777L12.9817 14.0619L2.91425 8.01693L2.90342 8.0061C2.64342 7.8436 2.55675 7.5186 2.70842 7.2586C2.75175 7.17193 2.81675 7.11777 2.89259 7.0636L12.3934 1.3631H12.3826C12.7184 1.14643 13.1518 1.14643 13.4984 1.35227L13.5558 1.4086ZM12.9925 3.59693L6.37009 7.56193L12.9925 11.5269L19.6117 7.5511L12.9817 3.57527L12.9925 3.59693Z" fill="url(#paint0_linear_514_6398)"/>
<defs>
<linearGradient id="paint0_linear_514_6398" x1="16.8973" y1="28.4197" x2="0.00118688" y2="4.77993" gradientUnits="userSpaceOnUse">
<stop stop-color="#E7752B"/>
<stop offset="0.0001" stop-color="#E7752B"/>
<stop offset="1" stop-color="#FF8A00"/>
</linearGradient>
</defs>
</svg>
