<svg fill="none" height="24" viewBox="0 0 24 24" width="24" xmlns="http://www.w3.org/2000/svg" xmlns:xlink="http://www.w3.org/1999/xlink"><linearGradient id="a" gradientUnits="userSpaceOnUse" x1="15.7931" x2="1.5013" y1="25.8667" y2="3.81294"><stop offset="0" stop-color="#e7752b"/><stop offset=".0001" stop-color="#e7752b"/><stop offset="1" stop-color="#ff8a00"/></linearGradient><path d="m12 22c-5.523 0-10-4.477-10-10s4.477-10 10-10 10 4.477 10 10-4.477 10-10 10zm0-2-.01-.001c4.41 0 8-3.59 8-8 0-4.42-3.59-8-8-8.01h-.01c-4.42 0-8 3.58-8 8 0 4.41 3.58 8 8 7.99zm-1-13h2v2h-2zm0 4h2v6h-2z" fill="url(#a)"/></svg>